<?xml version="1.0" encoding="UTF-8"?>
<!DOCTYPE svg PUBLIC "-//W3C//DTD SVG 1.1//EN" "http://www.w3.org/Graphics/SVG/1.1/DTD/svg11.dtd">
<!-- Creator: CorelDRAW (Versão OEM) -->
<svg xmlns="http://www.w3.org/2000/svg" xml:space="preserve" width="2.74899in" height="4.16469in" version="1.1" style="shape-rendering:geometricPrecision; text-rendering:geometricPrecision; image-rendering:optimizeQuality; fill-rule:evenodd; clip-rule:evenodd"
viewBox="0 0 3496.78 5297.58"
 xmlns:xlink="http://www.w3.org/1999/xlink"
 xmlns:xodm="http://www.corel.com/coreldraw/odm/2003">
 <defs>
  <style type="text/css">
   <![CDATA[
    .fil0 {fill:#848688}
    .fil1 {fill:#309186}
   ]]>
  </style>
 </defs>
 <g id="Camada_x0020_1">
  <metadata id="CorelCorpID_0Corel-Layer"/>
  <path class="fil0" d="M1341.01 1817.68c-5.92,28.22 -4.4,39.39 -19.93,64.29 -97.25,155.95 -186.17,346.25 -251.55,528.71 -275.23,768.1 -115.87,1148.34 -241.73,1825.4 37.33,-31.67 66.72,-73.17 99.1,-112.65l91.46 -91.8 592.6 -761.06c482.05,-668.01 832.55,-1547.64 964.56,-2392.77 40.41,-258.7 80.9,-531.99 49.26,-783.88 -7.25,-57.96 -31.27,-93.92 -31.27,-93.92 -102.42,121.99 -53.26,259.41 -381.54,585.69 -499.43,496.39 -990.51,553.32 -1643.07,1219.05 -502.38,512.53 -720.3,1417.51 -455.46,2172.78 45.52,129.8 208.55,532.88 342.36,618.04 134.29,-137.1 226.56,-429.85 198.16,-682.21 -60.14,-534.34 45.61,-990.13 278.78,-1462.17 84.32,-170.7 266.59,-507.15 408.25,-633.51z"/>
  <path class="fil1" d="M2666.5 719.89c-1.2,660.84 -170.45,1287.01 -440.33,1876.4 -50.81,110.97 -94.63,199.37 -153.41,306.05 -46.93,85.19 -137.35,209.82 -167.81,296.57 186.98,-39.87 552.13,-244.95 695.09,-334.83 170.81,-107.39 301.28,-216.83 432.28,-345.05 362.93,-355.19 -255.71,352.4 -299.62,389.21 -155.73,130.6 -349.34,256.49 -563.98,355.38 -258.44,119.06 -388.03,113.15 -471.37,234.99 -289.33,423 -584.73,719.18 -939.84,1073.92 -230.79,221.94 -185.95,296.89 -389.44,476.71l-320.26 248.33c131.2,-12.7 322.47,-78.12 417.24,-134.02 146.61,-86.48 161.15,-158.27 259.67,-287.91 435.79,-573.45 813.49,-529.18 1378.84,-794.22 357.27,-167.49 554.35,-440.78 759.08,-538 -13.4,29.56 -23.87,54.06 -39.16,73.63 -334.37,267.01 -424.02,507.58 -922.76,755.87 -453.49,225.75 -704.1,212.52 -982.1,569.37 150.34,110.93 735.28,27.2 922.25,-27.36 746.2,-217.72 1293.64,-815.97 1535.86,-1627.59 266.19,-891.92 61.68,-1809.43 -338.49,-2605.42 -85.07,-169.21 -266.42,-554.37 -379.88,-681.92 -11.75,20.28 -11.71,1.99 -6.55,43.26 29.29,233.11 15.12,434.34 14.69,676.63z"/>
 </g>
</svg>
